<svg xmlns="http://www.w3.org/2000/svg" width="296.2800109863281" height="81.58633783050216" viewBox="0 0 300 82.61070757918965" class="looka-1j8o68f"><defs id="SvgjsDefs2219"></defs><g id="SvgjsG2220" featurekey="symbolFeature-0" transform="matrix(0.5341849514321741,0,0,0.5341849514321741,-2.6709247571608707,15.32907524283913)" fill="#111111"><title xmlns="http://www.w3.org/2000/svg">Chat Box</title><desc xmlns="http://www.w3.org/2000/svg">Created with Sketch.</desc><g xmlns="http://www.w3.org/2000/svg" stroke="none" stroke-width="1" fill="none" fill-rule="evenodd" xmlns:sketch="http://www.bohemiancoding.com/sketch/ns" sketch:type="MSPage"><g sketch:type="MSArtboardGroup" fill="#111111"><path d="M34.0614357,79.2353225 C40.1004899,82.8940633 47.1852986,85 54.762124,85 L114.759615,85 C136.851951,85 154.76087,67.09139 154.76087,45 C154.76087,22.9037527 136.851698,5 114.759615,5 L54.762124,5 C32.669788,5 14.7608696,22.90861 14.7608696,45 C14.7608696,52.6917458 16.9310123,59.8754664 20.6923073,65.972804 C17.3256636,67.5822258 15,71.019519 15,75 C15,80.5228475 19.4771525,85 25,85 C29.0089401,85 32.4668973,82.6409621 34.0614357,79.2353225 Z M84.7636364,55 C90.2864839,55 94.7636364,50.5228475 94.7636364,45 C94.7636364,39.4771525 90.2864839,35 84.7636364,35 C79.2407889,35 74.7636364,39.4771525 74.7636364,45 C74.7636364,50.5228475 79.2407889,55 84.7636364,55 Z M114.76087,55 C120.283717,55 124.76087,50.5228475 124.76087,45 C124.76087,39.4771525 120.283717,35 114.76087,35 C109.238022,35 104.76087,39.4771525 104.76087,45 C104.76087,50.5228475 109.238022,55 114.76087,55 Z M54.7608696,55 C60.2837171,55 64.7608696,50.5228475 64.7608696,45 C64.7608696,39.4771525 60.2837171,35 54.7608696,35 C49.2380221,35 44.7608696,39.4771525 44.7608696,45 C44.7608696,50.5228475 49.2380221,55 54.7608696,55 Z M10,95 C12.7614237,95 15,92.7614237 15,90 C15,87.2385763 12.7614237,85 10,85 C7.23857625,85 5,87.2385763 5,90 C5,92.7614237 7.23857625,95 10,95 Z" sketch:type="MSShapeGroup"></path></g></g></g><g id="SvgjsG2221" featurekey="nameFeature-0" transform="matrix(2.331002248092607,0,0,2.331002248092607,99.34731888147033,-27.412586971093134)" fill="#111111"><path d="M22.08 17.32 l-7.32 0 l0 22.68 l-7.12 0 l0 -22.68 l-7.36 0 l0 -5.56 l21.8 0 l0 5.56 z M43.96 29.560000000000002 c0 4.72 -2.24 7.44 -3.68 8.64 c-1.2 1 -3.64 2.44 -7.56 2.44 c-1.08 0 -5.32 -0.2 -8.2 -3 c-1.24 -1.2 -3 -3.76 -3 -8.12 c0 -1.2 0.08 -4.6 2.44 -7.44 c1.44 -1.72 4.32 -3.88 9.6 -3.56 c2.44 0.12 4.6 0.68 6.56 2.24 c2.6 2.12 3.84 5.44 3.84 8.8 z M37.72 29.759999999999998 c0 -3.16 -1 -4.76 -2.2 -5.6 c-0.56 -0.4 -1.4 -0.8 -3.04 -0.8 c-0.28 0 -1.44 0.08 -2.32 0.6 c-1.12 0.64 -2.44 2.44 -2.44 5.52 c0 2.04 0.68 3.56 1.08 4.2 c0.48 0.72 1.68 2.04 4 2.04 c3.4 0 4.92 -2.84 4.92 -5.96 z M66.04 40 l-6.56 0 l-3.96 -6.48 l-3.48 6.48 l-6.8 0 l7.08 -11.32 l-6.32 -9.56 l6.96 0 l2.76 5.32 l2.96 -5.32 l6.6 0 l-6.32 9.76 z M86.08 19.12 l-7.36 22.56 c-0.48 1.48 -0.96 2.76 -2.04 3.92 c-1.32 1.36 -2.52 1.6 -4.36 1.6 l-4.44 0 l0 -4.92 l2.8 0 c1.44 0 1.92 -0.8 1.92 -1.52 c0 -0.56 -0.12 -1 -0.44 -2 c-0.2 -0.64 -0.4 -1.28 -0.6 -1.96 l-5.48 -17.68 l6.56 0 l3.44 14.96 l3.44 -14.96 l6.56 0 z"></path></g></svg>